<svg width="100" height="100" viewBox="0 0 100 100" fill="none" xmlns="http://www.w3.org/2000/svg">
<g clip-path="url(#clip0_12926_8882)">
<path d="M71.25 25C56.0623 25 43.7501 37.3122 43.75 52.5H49.25C49.25 40.3499 59.1 30.5 71.25 30.5V25Z" fill="#FFBC00"/>
<path d="M71.25 36.0002C62.1376 36.0002 54.75 43.3875 54.75 52.5H60.25C60.25 46.4252 65.1747 41.5004 71.25 41.5004V36.0002Z" fill="#FFBC00"/>
<path d="M71.25 46.9999C68.2124 46.9999 65.75 49.4622 65.75 52.4999H71.25V46.9999Z" fill="#FFBC00"/>
<path fill-rule="evenodd" clip-rule="evenodd" d="M56.25 65.625V87.5C56.25 94.4036 61.8464 100 68.75 100H87.5C94.4036 100 100 94.4036 100 87.5V43.75C100 36.8464 94.4036 31.25 87.5 31.25H78.1251V36.25H87.5C91.6421 36.25 95 39.6079 95 43.75V87.5C95 91.6421 91.6421 95 87.5 95H68.75C64.6079 95 61.25 91.6421 61.25 87.5V65.625H56.25Z" fill="white"/>
<path d="M13.75 72.5C13.75 71.1193 14.8693 70 16.25 70H43.75V75H16.25C14.8693 75 13.75 73.8807 13.75 72.5Z" fill="white"/>
<path fill-rule="evenodd" clip-rule="evenodd" d="M12.5 5H87.5C91.6421 5 95 8.35786 95 12.5V21.25H100V12.5C100 5.59644 94.4036 0 87.5 0H12.5C5.59644 0 0 5.59644 0 12.5V50C0 56.9036 5.59644 62.5 12.5 62.5H43.75V57.5H12.5C8.35786 57.5 5 54.1421 5 50V12.5C5 8.35786 8.35786 5 12.5 5Z" fill="white"/>
<circle cx="78.75" cy="87.5" r="2.5" fill="white"/>
</g>
<defs>
<clipPath id="clip0_12926_8882">
<rect width="100" height="100" fill="white"/>
</clipPath>
</defs>
</svg>
