<svg width="144" height="60" viewBox="0 0 144 60" fill="none" xmlns="http://www.w3.org/2000/svg">
<path d="M112.249 0.00154854H76.1002C76.094 0.00154854 76.0894 0 76.0848 0H5.67289C2.54457 0 0.00976562 2.53713 0.00976562 5.66832V12.3654C0.00976562 12.4165 0.049951 12.4567 0.100956 12.4567H17.8492C17.9002 12.4567 17.9404 12.5 17.9404 12.5495V59.9041C17.9404 59.9551 17.9837 59.9954 18.0331 59.9954H31.2636C31.3146 59.9954 31.3563 59.9551 31.3563 59.9041V12.5495C31.3563 12.4985 31.3965 12.4567 31.4475 12.4567H47.0721C44.8665 15.526 43.2328 19.0408 42.3162 22.8605C42.3101 22.8852 42.3039 22.9069 42.3008 22.9316C42.2544 23.1281 42.208 23.3277 42.1648 23.5272C42.157 23.5705 42.1462 23.6139 42.137 23.6572C42.0983 23.8397 42.0612 24.0254 42.0272 24.2095C42.0148 24.2698 42.0025 24.3286 41.9932 24.3905C41.9607 24.5637 41.9298 24.7339 41.902 24.9056C41.8881 24.9814 41.8757 25.0557 41.8634 25.133C41.8386 25.2939 41.8124 25.4533 41.7907 25.6157C41.7768 25.7054 41.766 25.7921 41.7536 25.8818C41.7335 26.0334 41.7135 26.185 41.6949 26.3366C41.6825 26.4387 41.6702 26.5393 41.6609 26.6414C41.6454 26.7837 41.6284 26.9261 41.6161 27.0684C41.6037 27.1844 41.596 27.2973 41.5852 27.4134C41.5728 27.5449 41.5635 27.6748 41.5527 27.8094C41.5419 27.9394 41.5373 28.0693 41.528 28.2008C41.5203 28.3184 41.5125 28.439 41.5079 28.5566C41.5002 28.7113 41.4955 28.8676 41.4893 29.0223C41.4847 29.1197 41.4816 29.2172 41.4785 29.3147C41.4723 29.5622 41.4708 29.8128 41.4677 30.0634C41.4677 30.0681 41.4677 30.0712 41.4677 30.0774C41.4677 32.4025 41.7119 34.6519 42.1725 36.7977C45.0922 50.4022 56.8033 59.9969 71.6751 59.9969C88.7 59.9969 102.037 46.7853 102.037 29.9211C102.037 23.289 100.073 17.2912 96.6615 12.4381L112.251 12.4582C122.976 12.4582 130.181 19.4756 130.181 29.9196C130.181 40.461 122.976 47.5433 112.251 47.5433C107.464 47.5433 103.584 51.4264 103.584 56.2175V60H112.251C130.648 60 144 47.418 144 30.082C143.999 12.6516 130.646 0.00154854 112.249 0.00154854ZM72.0214 47.5464H71.9827C71.9781 47.5464 71.9719 47.5464 71.9688 47.5464C71.9224 47.548 71.8761 47.548 71.8281 47.548C62.3165 47.548 55.1433 39.9722 55.1433 29.9227C55.1433 20.7457 61.1743 13.6494 69.4927 12.5897C69.6179 12.5743 69.7462 12.5588 69.8714 12.5464C70.4479 12.4861 71.0337 12.4536 71.6303 12.4505H71.7524C71.9101 12.452 72.0693 12.4551 72.2254 12.4613C72.4603 12.4722 72.7772 12.4861 73.0755 12.5077C73.2888 12.5232 73.502 12.5464 73.7122 12.5712C73.8112 12.5835 73.9704 12.6052 74.0677 12.6176C74.0739 12.6176 74.0801 12.6176 74.0863 12.6191C82.3723 13.7809 88.3585 20.8973 88.3585 30.0758C88.3585 39.9691 81.3476 47.4443 72.0214 47.5464Z" fill="#FFBC00"/>
<mask id="mask0_12926_8880" style="mask-type:luminance" maskUnits="userSpaceOnUse" x="70" y="12" width="33" height="48">
<path d="M102.037 12.4381H70.6289V59.9984H102.037V12.4381Z" fill="white"/>
</mask>
<g mask="url(#mask0_12926_8880)">
<g style="mix-blend-mode:multiply" opacity="0.6">
<mask id="mask1_12926_8880" style="mask-type:luminance" maskUnits="userSpaceOnUse" x="70" y="12" width="33" height="48">
<path d="M102.037 12.4381H70.6289V59.9984H102.037V12.4381Z" fill="white"/>
</mask>
<g mask="url(#mask1_12926_8880)">
<mask id="mask2_12926_8880" style="mask-type:luminance" maskUnits="userSpaceOnUse" x="70" y="12" width="33" height="48">
<path d="M71.6311 12.452H71.7547C71.9124 12.452 72.0716 12.4535 72.2277 12.4597C72.4611 12.4706 72.7795 12.4845 73.0778 12.5061C73.2911 12.5232 73.5044 12.5448 73.713 12.5696C73.8151 12.5835 73.9727 12.6036 74.0701 12.616C74.0763 12.616 74.0824 12.6175 74.0886 12.6175C82.3746 13.7793 88.3608 20.8957 88.3608 30.0742C88.3608 39.9675 81.3499 47.4427 72.0237 47.5433H71.9851C71.9804 47.5433 71.9742 47.5433 71.9711 47.5448C71.9248 47.5448 71.8784 47.5448 71.8305 47.5448C71.424 47.5448 71.0252 47.5309 70.6295 47.5046C70.628 52.4458 70.6295 56.8889 70.6311 59.9767C70.9773 59.9891 71.3251 59.9953 71.6744 59.9953C88.7024 59.9953 102.038 46.7852 102.038 29.9195C102.038 23.2874 100.073 17.2896 96.6623 12.4365" fill="white"/>
</mask>
<g mask="url(#mask2_12926_8880)">
<path d="M102.036 12.4381H70.6265V59.9984H102.036V12.4381Z" fill="url(#paint0_linear_12926_8880)"/>
</g>
</g>
</g>
</g>
<mask id="mask3_12926_8880" style="mask-type:luminance" maskUnits="userSpaceOnUse" x="0" y="0" width="71" height="13">
<path d="M70.0301 0H0V12.4582H70.0301V0Z" fill="white"/>
</mask>
<g mask="url(#mask3_12926_8880)">
<g style="mix-blend-mode:multiply" opacity="0.6">
<mask id="mask4_12926_8880" style="mask-type:luminance" maskUnits="userSpaceOnUse" x="0" y="0" width="71" height="13">
<path d="M70.0301 0H0V12.4582H70.0301V0Z" fill="white"/>
</mask>
<g mask="url(#mask4_12926_8880)">
<mask id="mask5_12926_8880" style="mask-type:luminance" maskUnits="userSpaceOnUse" x="0" y="0" width="71" height="13">
<path d="M70.0317 0H5.66621C2.53789 0 0 2.53868 0 5.66832V12.3654C0 12.4165 15.2026 12.4582 15.2536 12.4582H23.0667H47.07C52.1999 5.28929 60.4551 0.539913 70.0317 0Z" fill="white"/>
</mask>
<g mask="url(#mask5_12926_8880)">
<path d="M33.5214 -35.0153L76.2499 5.96401L36.5107 47.4739L-6.21777 6.49464L33.5214 -35.0153Z" fill="url(#paint1_linear_12926_8880)"/>
</g>
</g>
</g>
</g>
<defs>
<linearGradient id="paint0_linear_12926_8880" x1="86.3252" y1="45.0062" x2="86.3252" y2="8.34683" gradientUnits="userSpaceOnUse">
<stop stop-color="white"/>
<stop offset="0.1" stop-color="#E8E7E7"/>
<stop offset="0.2698" stop-color="#C0BDBE"/>
<stop offset="0.4887" stop-color="#8A8487"/>
<stop offset="0.7452" stop-color="#4E494C"/>
<stop offset="1" stop-color="#181319"/>
</linearGradient>
<linearGradient id="paint1_linear_12926_8880" x1="22.1545" y1="-6.12375" x2="49.3563" y2="19.917" gradientUnits="userSpaceOnUse">
<stop stop-color="white"/>
<stop offset="0.149812" stop-color="white"/>
<stop offset="0.540121" stop-color="#E3E1E2"/>
<stop offset="0.7207" stop-color="#797477"/>
<stop offset="0.8526" stop-color="#423D40"/>
<stop offset="0.949" stop-color="#252024"/>
<stop offset="1" stop-color="#181319"/>
</linearGradient>
</defs>
</svg>
